<svg width="1920" height="1170" viewBox="0 0 1920 1170" fill="none" xmlns="http://www.w3.org/2000/svg">
<rect x="-15" y="962.457" width="1943.42" height="207.568" transform="rotate(-3.73085 -15 962.457)" fill="#F2C94C"/>
<path fill-rule="evenodd" clip-rule="evenodd" d="M1501.87 55.4517C1572.7 61.7024 1652.48 8.00412 1707.07 53.5424C1762.61 99.8685 1740.15 186.524 1745.45 258.629C1751.5 340.783 1794.07 434.415 1739.65 496.279C1684.51 558.963 1583.18 554.539 1501.87 535.52C1435.63 520.027 1406.38 449.856 1354.27 406.143C1291.99 353.888 1191.39 337.516 1171.82 258.629C1150.19 171.463 1180.42 60.9175 1256.92 13.8196C1330.23 -31.3081 1416.11 47.8835 1501.87 55.4517Z" fill="#D9ECFF" fill-opacity="0.16"/>
<path d="M974 191.5C974 221.047 950.047 245 920.5 245C890.953 245 867 221.047 867 191.5C867 161.953 890.953 138 920.5 138C950.047 138 974 161.953 974 191.5Z" fill="#F2C94C"/>
<path fill-rule="evenodd" clip-rule="evenodd" d="M920.5 243C948.943 243 972 219.943 972 191.5C972 163.057 948.943 140 920.5 140C892.057 140 869 163.057 869 191.5C869 219.943 892.057 243 920.5 243ZM920.5 245C950.047 245 974 221.047 974 191.5C974 161.953 950.047 138 920.5 138C890.953 138 867 161.953 867 191.5C867 221.047 890.953 245 920.5 245Z" fill="#F2C94C"/>
<path fill-rule="evenodd" clip-rule="evenodd" d="M920.499 233.696C943.803 233.696 962.695 214.804 962.695 191.5C962.695 168.196 943.803 149.304 920.499 149.304C897.195 149.304 878.304 168.196 878.304 191.5C878.304 214.804 897.195 233.696 920.499 233.696ZM920.499 235.696C944.908 235.696 964.695 215.909 964.695 191.5C964.695 167.092 944.908 147.304 920.499 147.304C896.091 147.304 876.304 167.092 876.304 191.5C876.304 215.909 896.091 235.696 920.499 235.696Z" fill="#2A1E17"/>
<path d="M895.571 186.982L886.914 186.591L887.314 185.304L894.035 185.664L888.315 182.079L888.708 180.813L895.445 181.084L889.705 177.6L890.105 176.312L897.466 180.879L896.996 182.394L890.717 182.135L896.042 185.467L895.571 186.982Z" fill="black"/>
<path d="M895.29 173.745C895.514 173.441 895.749 173.224 895.995 173.095C896.244 172.96 896.478 172.879 896.695 172.851C896.913 172.824 897.087 172.816 897.219 172.829L897.259 172.774L896.538 172.244L897.305 171.204L902.143 174.762L901.376 175.801L900.655 175.271L900.615 175.326C900.665 175.447 900.71 175.616 900.748 175.832C900.786 176.047 900.778 176.294 900.723 176.572C900.672 176.844 900.535 177.132 900.31 177.436C900.041 177.801 899.736 178.069 899.394 178.239C899.051 178.399 898.693 178.483 898.321 178.491C897.943 178.494 897.572 178.432 897.206 178.304C896.845 178.17 896.51 177.989 896.199 177.76C895.889 177.532 895.616 177.266 895.381 176.962C895.15 176.651 894.983 176.317 894.88 175.961C894.771 175.599 894.746 175.233 894.803 174.863C894.859 174.482 895.021 174.109 895.29 173.745ZM896.326 174.154C896.106 174.452 896.004 174.762 896.02 175.083C896.031 175.4 896.122 175.702 896.296 175.989C896.473 176.27 896.699 176.511 896.973 176.712C897.247 176.913 897.544 177.057 897.866 177.143C898.191 177.223 898.51 177.224 898.823 177.144C899.129 177.06 899.392 176.869 899.611 176.571C899.831 176.273 899.934 175.969 899.919 175.658C899.903 175.336 899.806 175.035 899.628 174.755C899.455 174.468 899.231 174.224 898.957 174.022C898.683 173.821 898.384 173.68 898.058 173.6C897.737 173.514 897.423 173.513 897.117 173.597C896.809 173.671 896.545 173.857 896.326 174.154Z" fill="black"/>
<path d="M905.647 172.23C905.276 172.528 904.924 172.7 904.591 172.745C904.259 172.789 903.952 172.74 903.672 172.597C903.393 172.444 903.146 172.235 902.933 171.97L900.941 169.501L900.12 170.161L899.465 169.35L900.286 168.69L899.347 167.526L900.354 166.716L901.293 167.88L902.388 167L903.042 167.811L901.947 168.692L903.925 171.143C904.281 171.584 904.703 171.608 905.191 171.215C905.315 171.116 905.423 171.015 905.514 170.912C905.606 170.809 905.652 170.757 905.652 170.757L906.314 171.577C906.314 171.577 906.25 171.648 906.121 171.79C905.999 171.927 905.841 172.074 905.647 172.23Z" fill="black"/>
<path d="M910.954 169.318C910.494 169.529 910.056 169.634 909.64 169.633C909.221 169.626 908.837 169.54 908.487 169.376C908.135 169.205 907.823 168.978 907.552 168.695C907.287 168.409 907.075 168.091 906.914 167.741C906.753 167.391 906.651 167.023 906.606 166.636C906.569 166.246 906.602 165.865 906.705 165.494C906.806 165.116 906.992 164.769 907.263 164.454C907.53 164.132 907.894 163.866 908.355 163.655C908.808 163.448 909.214 163.345 909.572 163.347C909.934 163.34 910.25 163.394 910.52 163.512C910.79 163.629 911.015 163.767 911.196 163.925C911.377 164.083 911.509 164.226 911.593 164.354C911.683 164.479 911.728 164.541 911.728 164.541L910.616 165.05C910.616 165.05 910.575 165.007 910.493 164.919C910.418 164.829 910.305 164.736 910.153 164.639C910 164.543 909.811 164.484 909.585 164.463C909.366 164.438 909.109 164.494 908.814 164.629C908.464 164.789 908.213 165.012 908.061 165.297C907.906 165.576 907.832 165.884 907.837 166.222C907.85 166.557 907.93 166.886 908.078 167.208C908.226 167.531 908.423 167.806 908.669 168.034C908.922 168.259 909.206 168.407 909.522 168.479C909.834 168.544 910.165 168.496 910.516 168.336C910.811 168.2 911.021 168.042 911.145 167.861C911.277 167.676 911.355 167.494 911.382 167.316C911.408 167.138 911.411 166.991 911.391 166.876C911.378 166.757 911.372 166.698 911.372 166.698L912.485 166.189C912.485 166.189 912.502 166.264 912.538 166.413C912.58 166.56 912.603 166.753 912.605 166.993C912.607 167.233 912.564 167.494 912.477 167.774C912.39 168.055 912.227 168.333 911.988 168.609C911.752 168.875 911.408 169.111 910.954 169.318Z" fill="black"/>
<path d="M914.776 167.955L913.382 159.458L914.656 159.249L915.22 162.681L915.287 162.67C915.322 162.558 915.39 162.416 915.493 162.246C915.594 162.069 915.746 161.903 915.95 161.747C916.162 161.59 916.443 161.483 916.793 161.425C917.233 161.353 917.618 161.394 917.95 161.546C918.281 161.699 918.548 161.93 918.753 162.241C918.964 162.551 919.103 162.907 919.169 163.31L919.796 167.134L918.522 167.342L917.916 163.652C917.858 163.295 917.707 163.009 917.466 162.796C917.232 162.582 916.921 162.507 916.533 162.57C916.228 162.62 915.991 162.739 915.823 162.927C915.661 163.107 915.555 163.327 915.506 163.587C915.456 163.841 915.453 164.105 915.498 164.381L916.051 167.746L914.776 167.955Z" fill="black"/>
<path d="M928.179 168.481L927.832 159.611L929.165 160.017L929.416 167.377L933.728 161.407L935.061 161.813L929.804 168.976L928.179 168.481Z" fill="black"/>
<path d="M937.64 165.078C937.439 164.959 937.314 164.793 937.264 164.579C937.215 164.366 937.245 164.168 937.353 163.986C937.465 163.798 937.624 163.677 937.831 163.624C938.042 163.565 938.248 163.595 938.45 163.714C938.651 163.833 938.777 163.999 938.826 164.213C938.885 164.423 938.859 164.623 938.747 164.811C938.635 165 938.471 165.122 938.253 165.177C938.046 165.23 937.842 165.197 937.64 165.078ZM933.504 170.806L936.568 165.642L937.68 166.299L934.616 171.463L933.504 170.806Z" fill="black"/>
<path d="M938.656 174.885C938.328 174.572 938.102 174.235 937.977 173.875C937.862 173.514 937.825 173.15 937.865 172.78C937.91 172.406 938.02 172.046 938.195 171.7C938.375 171.36 938.598 171.051 938.865 170.773C939.131 170.495 939.431 170.26 939.764 170.066C940.102 169.877 940.455 169.755 940.823 169.699C941.195 169.637 941.562 169.659 941.923 169.763C942.294 169.867 942.643 170.076 942.97 170.389C943.243 170.65 943.428 170.911 943.524 171.17C943.626 171.435 943.677 171.677 943.676 171.896C943.676 172.115 943.661 172.288 943.631 172.417L943.68 172.464L946.104 169.938L947.038 170.831L941.076 177.044L940.142 176.151L940.762 175.505L940.713 175.458C940.585 175.493 940.412 175.515 940.193 175.525C939.974 175.535 939.73 175.495 939.461 175.405C939.197 175.319 938.929 175.146 938.656 174.885ZM939.606 174.305C939.873 174.56 940.162 174.701 940.473 174.726C940.794 174.752 941.106 174.694 941.407 174.554C941.715 174.42 941.986 174.23 942.221 173.984C942.457 173.739 942.635 173.461 942.757 173.148C942.884 172.841 942.925 172.531 942.881 172.217C942.848 171.903 942.697 171.618 942.43 171.362C942.162 171.106 941.868 170.965 941.547 170.94C941.231 170.91 940.919 170.962 940.612 171.096C940.31 171.236 940.041 171.429 939.806 171.674C939.571 171.919 939.39 172.195 939.262 172.502C939.141 172.815 939.099 173.13 939.138 173.45C939.182 173.764 939.338 174.049 939.606 174.305Z" fill="black"/>
<path d="M943.186 180.942C942.93 180.505 942.783 180.084 942.746 179.677C942.719 179.272 942.771 178.892 942.903 178.535C943.046 178.18 943.246 177.857 943.504 177.566C943.767 177.282 944.064 177.042 944.397 176.848C944.723 176.657 945.074 176.517 945.451 176.428C945.828 176.339 946.206 176.319 946.585 176.369C946.964 176.418 947.321 176.556 947.654 176.781C947.994 177.002 948.288 177.324 948.536 177.748C948.804 178.204 948.935 178.665 948.929 179.133C948.933 179.603 948.79 180.054 948.5 180.485C948.221 180.92 947.785 181.311 947.192 181.658L946.888 181.835L944.733 178.16C944.351 178.419 944.087 178.753 943.941 179.162C943.796 179.57 943.847 179.986 944.095 180.41C944.237 180.651 944.392 180.827 944.562 180.937C944.739 181.044 944.904 181.11 945.058 181.133C945.212 181.157 945.338 181.162 945.435 181.149C945.536 181.142 945.587 181.139 945.587 181.139L946.195 182.175C946.195 182.175 946.126 182.193 945.99 182.229C945.86 182.261 945.683 182.281 945.46 182.289C945.241 182.304 944.999 182.279 944.734 182.215C944.469 182.151 944.199 182.02 943.925 181.822C943.658 181.62 943.411 181.326 943.186 180.942ZM945.521 177.713L947.04 180.302C947.481 180.009 947.737 179.676 947.807 179.303C947.881 178.936 947.822 178.59 947.631 178.264C947.417 177.899 947.119 177.667 946.736 177.567C946.36 177.463 945.955 177.512 945.521 177.713Z" fill="black"/>
<path d="M945.577 187.388C945.412 186.752 945.416 186.178 945.588 185.665C945.761 185.16 946.049 184.735 946.451 184.389C946.855 184.051 947.317 183.815 947.836 183.681C948.355 183.547 948.874 183.531 949.391 183.631C949.911 183.739 950.369 183.972 950.766 184.33C951.164 184.695 951.446 185.195 951.611 185.832C951.773 186.461 951.768 187.027 951.594 187.532C951.423 188.045 951.135 188.47 950.731 188.808C950.329 189.154 949.868 189.394 949.349 189.527C948.83 189.661 948.31 189.674 947.791 189.567C947.273 189.466 946.815 189.233 946.416 188.868C946.019 188.51 945.74 188.017 945.577 187.388ZM946.641 187.114C946.734 187.472 946.903 187.748 947.148 187.942C947.395 188.144 947.685 188.268 948.017 188.315C948.351 188.369 948.686 188.353 949.022 188.266C949.366 188.177 949.667 188.03 949.926 187.822C950.193 187.621 950.387 187.372 950.505 187.076C950.625 186.788 950.639 186.464 950.547 186.106C950.454 185.748 950.284 185.468 950.037 185.267C949.79 185.065 949.5 184.941 949.168 184.894C948.843 184.845 948.509 184.865 948.165 184.954C947.829 185.04 947.527 185.185 947.259 185.386C946.991 185.588 946.798 185.837 946.68 186.132C946.561 186.428 946.548 186.755 946.641 187.114Z" fill="black"/>
<path d="M945.571 195.857L954.229 196.247L953.829 197.534L947.107 197.174L952.828 200.759L952.435 202.025L945.697 201.754L951.437 205.239L951.037 206.526L943.676 201.959L944.147 200.444L950.425 200.703L945.101 197.371L945.571 195.857Z" fill="black"/>
<path d="M945.852 209.093C945.628 209.397 945.393 209.614 945.148 209.743C944.898 209.878 944.664 209.959 944.447 209.987C944.229 210.014 944.055 210.022 943.923 210.01L943.883 210.064L944.604 210.595L943.837 211.634L939 208.076L939.766 207.037L940.488 207.567L940.528 207.513C940.477 207.391 940.432 207.222 940.394 207.007C940.356 206.791 940.365 206.544 940.42 206.266C940.47 205.994 940.608 205.706 940.832 205.402C941.101 205.037 941.406 204.769 941.748 204.599C942.092 204.439 942.449 204.355 942.821 204.347C943.199 204.344 943.571 204.406 943.936 204.534C944.297 204.668 944.633 204.85 944.943 205.078C945.253 205.306 945.526 205.572 945.761 205.877C945.992 206.187 946.159 206.521 946.262 206.878C946.371 207.239 946.397 207.605 946.339 207.975C946.284 208.356 946.121 208.729 945.852 209.093ZM944.817 208.684C945.037 208.386 945.138 208.076 945.122 207.755C945.112 207.438 945.02 207.136 944.847 206.849C944.669 206.569 944.443 206.328 944.169 206.126C943.896 205.925 943.598 205.781 943.277 205.695C942.951 205.615 942.632 205.615 942.32 205.694C942.014 205.779 941.751 205.97 941.531 206.267C941.311 206.565 941.209 206.87 941.223 207.18C941.24 207.502 941.337 207.803 941.515 208.084C941.688 208.37 941.911 208.614 942.185 208.816C942.459 209.017 942.759 209.158 943.085 209.238C943.406 209.324 943.719 209.325 944.026 209.241C944.333 209.167 944.597 208.982 944.817 208.684Z" fill="black"/>
<path d="M935.496 210.608C935.867 210.31 936.218 210.138 936.551 210.094C936.884 210.049 937.19 210.098 937.471 210.241C937.75 210.395 937.996 210.604 938.209 210.868L940.201 213.337L941.023 212.677L941.677 213.488L940.856 214.148L941.795 215.312L940.789 216.122L939.849 214.958L938.755 215.838L938.1 215.027L939.195 214.147L937.217 211.695C936.862 211.254 936.439 211.23 935.951 211.623C935.827 211.723 935.72 211.824 935.628 211.927C935.536 212.03 935.49 212.081 935.49 212.081L934.829 211.261C934.829 211.261 934.893 211.19 935.021 211.048C935.143 210.911 935.302 210.764 935.496 210.608Z" fill="black"/>
<path d="M930.188 213.52C930.648 213.309 931.086 213.204 931.502 213.205C931.921 213.213 932.305 213.299 932.655 213.462C933.008 213.633 933.32 213.86 933.591 214.143C933.855 214.429 934.068 214.747 934.228 215.097C934.389 215.447 934.492 215.816 934.536 216.202C934.574 216.592 934.541 216.973 934.437 217.344C934.336 217.723 934.151 218.069 933.88 218.384C933.612 218.706 933.248 218.972 932.788 219.183C932.335 219.39 931.929 219.493 931.57 219.491C931.208 219.499 930.892 219.444 930.622 219.327C930.352 219.209 930.127 219.072 929.946 218.913C929.766 218.755 929.634 218.612 929.55 218.484C929.459 218.36 929.414 218.297 929.414 218.297L930.527 217.788C930.527 217.788 930.568 217.832 930.649 217.919C930.724 218.009 930.837 218.103 930.99 218.199C931.142 218.296 931.331 218.354 931.557 218.376C931.776 218.4 932.033 218.345 932.328 218.21C932.679 218.049 932.93 217.826 933.081 217.541C933.236 217.263 933.311 216.954 933.305 216.616C933.293 216.282 933.212 215.953 933.064 215.63C932.916 215.308 932.719 215.032 932.473 214.804C932.22 214.579 931.936 214.431 931.621 214.359C931.308 214.295 930.977 214.342 930.627 214.503C930.331 214.638 930.122 214.796 929.997 214.978C929.866 215.163 929.787 215.344 929.761 215.522C929.735 215.7 929.731 215.847 929.751 215.963C929.764 216.081 929.77 216.141 929.77 216.141L928.658 216.65C928.658 216.65 928.64 216.575 928.604 216.425C928.562 216.278 928.54 216.085 928.538 215.845C928.536 215.605 928.578 215.345 928.665 215.064C928.753 214.783 928.916 214.505 929.155 214.229C929.39 213.964 929.735 213.727 930.188 213.52Z" fill="black"/>
<path d="M926.367 214.884L927.761 223.381L926.486 223.589L925.923 220.157L925.856 220.168C925.821 220.281 925.752 220.422 925.65 220.592C925.549 220.769 925.396 220.936 925.192 221.092C924.981 221.249 924.7 221.356 924.349 221.413C923.909 221.485 923.524 221.445 923.193 221.292C922.862 221.14 922.594 220.908 922.39 220.597C922.178 220.287 922.039 219.931 921.973 219.529L921.346 215.705L922.621 215.496L923.226 219.186C923.285 219.544 923.435 219.829 923.677 220.042C923.911 220.256 924.222 220.332 924.609 220.268C924.915 220.218 925.152 220.099 925.32 219.911C925.482 219.732 925.587 219.512 925.636 219.251C925.687 218.998 925.689 218.733 925.644 218.458L925.092 215.092L926.367 214.884Z" fill="black"/>
<path d="M912.964 214.357L913.31 223.227L911.977 222.821L911.726 215.461L907.414 221.431L906.081 221.025L911.338 213.862L912.964 214.357Z" fill="black"/>
<path d="M903.502 217.761C903.704 217.88 903.829 218.046 903.878 218.259C903.927 218.473 903.898 218.67 903.79 218.852C903.678 219.041 903.518 219.161 903.311 219.214C903.1 219.274 902.894 219.244 902.693 219.125C902.491 219.005 902.366 218.839 902.317 218.626C902.257 218.415 902.283 218.216 902.395 218.027C902.507 217.839 902.672 217.717 902.889 217.661C903.096 217.608 903.3 217.641 903.502 217.761ZM907.638 212.033L904.574 217.197L903.462 216.539L906.527 211.375L907.638 212.033Z" fill="black"/>
<path d="M902.489 207.953C902.817 208.266 903.043 208.603 903.168 208.963C903.283 209.324 903.32 209.689 903.28 210.058C903.234 210.433 903.125 210.793 902.95 211.138C902.77 211.478 902.547 211.787 902.28 212.065C902.014 212.343 901.714 212.579 901.381 212.773C901.043 212.962 900.69 213.084 900.322 213.14C899.949 213.201 899.583 213.18 899.222 213.075C898.851 212.971 898.502 212.762 898.174 212.449C897.902 212.188 897.717 211.928 897.62 211.668C897.519 211.403 897.468 211.162 897.469 210.943C897.469 210.724 897.484 210.55 897.514 210.421L897.465 210.374L895.04 212.9L894.107 212.007L900.069 205.795L901.003 206.688L900.383 207.333L900.432 207.38C900.56 207.346 900.733 207.323 900.952 207.313C901.171 207.303 901.415 207.343 901.684 207.434C901.948 207.519 902.216 207.692 902.489 207.953ZM901.539 208.534C901.272 208.278 900.983 208.137 900.672 208.112C900.351 208.087 900.039 208.144 899.738 208.284C899.43 208.419 899.159 208.609 898.924 208.854C898.688 209.099 898.51 209.378 898.388 209.69C898.261 209.997 898.22 210.307 898.264 210.621C898.297 210.936 898.448 211.221 898.715 211.477C898.982 211.732 899.277 211.873 899.598 211.898C899.914 211.929 900.226 211.877 900.533 211.742C900.835 211.602 901.103 211.41 901.339 211.164C901.574 210.919 901.755 210.643 901.882 210.336C902.004 210.024 902.045 209.708 902.007 209.389C901.962 209.075 901.807 208.79 901.539 208.534Z" fill="black"/>
<path d="M897.957 201.896C898.213 202.333 898.359 202.755 898.397 203.162C898.424 203.566 898.371 203.946 898.239 204.304C898.097 204.658 897.896 204.981 897.638 205.272C897.376 205.556 897.078 205.796 896.746 205.99C896.42 206.181 896.068 206.321 895.692 206.41C895.315 206.499 894.937 206.519 894.557 206.469C894.178 206.42 893.822 206.283 893.488 206.058C893.148 205.836 892.854 205.514 892.606 205.091C892.338 204.634 892.208 204.173 892.214 203.705C892.21 203.235 892.352 202.785 892.642 202.353C892.921 201.918 893.358 201.527 893.951 201.181L894.254 201.003L896.409 204.678C896.792 204.419 897.056 204.085 897.201 203.677C897.347 203.268 897.295 202.852 897.047 202.428C896.906 202.187 896.75 202.011 896.58 201.901C896.403 201.794 896.238 201.729 896.084 201.705C895.93 201.681 895.805 201.676 895.707 201.689C895.606 201.696 895.555 201.699 895.555 201.699L894.948 200.663C894.948 200.663 895.016 200.645 895.153 200.609C895.282 200.577 895.459 200.557 895.682 200.549C895.901 200.535 896.143 200.559 896.408 200.623C896.673 200.687 896.943 200.818 897.217 201.016C897.485 201.219 897.731 201.512 897.957 201.896ZM895.621 205.125L894.102 202.536C893.661 202.829 893.405 203.162 893.336 203.535C893.262 203.902 893.32 204.248 893.511 204.574C893.725 204.939 894.024 205.171 894.406 205.271C894.783 205.375 895.187 205.327 895.621 205.125Z" fill="black"/>
<path d="M895.566 195.451C895.73 196.087 895.727 196.661 895.555 197.173C895.381 197.678 895.093 198.104 894.691 198.449C894.287 198.787 893.826 199.023 893.306 199.157C892.787 199.291 892.269 199.308 891.751 199.207C891.232 199.1 890.774 198.867 890.377 198.509C889.978 198.144 889.696 197.643 889.532 197.007C889.369 196.378 889.374 195.811 889.548 195.306C889.72 194.794 890.008 194.369 890.412 194.03C890.814 193.685 891.274 193.445 891.794 193.311C892.313 193.177 892.832 193.164 893.352 193.272C893.869 193.373 894.327 193.605 894.726 193.971C895.123 194.328 895.403 194.822 895.566 195.451ZM894.501 195.725C894.409 195.367 894.24 195.091 893.994 194.896C893.747 194.695 893.458 194.571 893.126 194.524C892.792 194.469 892.456 194.486 892.12 194.573C891.776 194.661 891.475 194.809 891.217 195.016C890.949 195.218 890.756 195.467 890.637 195.762C890.517 196.051 890.503 196.374 890.596 196.732C890.688 197.091 890.858 197.371 891.106 197.572C891.353 197.774 891.642 197.898 891.974 197.945C892.299 197.994 892.633 197.974 892.977 197.885C893.314 197.798 893.616 197.654 893.883 197.452C894.151 197.251 894.344 197.002 894.463 196.706C894.581 196.41 894.594 196.083 894.501 195.725Z" fill="black"/>
<path d="M929.028 190.725L916.235 198.782L916.235 182.667L929.028 190.725Z" fill="#2A1E17"/>
<path d="M1750.31 129.564C1750.31 181.864 1707.91 224.261 1655.61 224.261C1603.31 224.261 1560.91 181.864 1560.91 129.564C1560.91 77.2637 1603.31 34.8662 1655.61 34.8662C1707.91 34.8662 1750.31 77.2637 1750.31 129.564Z" fill="#D3B3A7"/>
<path d="M1738.47 129.069C1738.47 175.649 1700.71 213.409 1654.13 213.409C1607.55 213.409 1569.79 175.649 1569.79 129.069C1569.79 82.4898 1607.55 44.7295 1654.13 44.7295C1700.71 44.7295 1738.47 82.4898 1738.47 129.069Z" fill="#EDC9BC"/>
<path d="M1720.2 128.369C1720.2 164.468 1690.93 193.733 1654.83 193.733C1618.74 193.733 1589.47 164.468 1589.47 128.369C1589.47 92.2698 1618.74 63.0056 1654.83 63.0056C1690.93 63.0056 1720.2 92.2698 1720.2 128.369Z" fill="white"/>
<path fill-rule="evenodd" clip-rule="evenodd" d="M1654.83 191.733C1689.83 191.733 1718.2 163.364 1718.2 128.369C1718.2 93.3744 1689.83 65.0056 1654.83 65.0056C1619.84 65.0056 1591.47 93.3744 1591.47 128.369C1591.47 163.364 1619.84 191.733 1654.83 191.733ZM1654.83 193.733C1690.93 193.733 1720.2 164.468 1720.2 128.369C1720.2 92.2698 1690.93 63.0056 1654.83 63.0056C1618.74 63.0056 1589.47 92.2698 1589.47 128.369C1589.47 164.468 1618.74 193.733 1654.83 193.733Z" fill="#6F5773"/>
<path d="M1674.69 124.936C1674.69 134.743 1666.74 142.692 1656.93 142.692C1647.13 142.692 1639.18 134.743 1639.18 124.936C1639.18 115.13 1647.13 107.181 1656.93 107.181C1666.74 107.181 1674.69 115.13 1674.69 124.936Z" fill="#F8DAD0" fill-opacity="0.76"/>
<path d="M1652.38 69.6104H1656.6V78.0443H1652.38V69.6104Z" fill="#E95850" fill-opacity="0.72"/>
<path d="M1627.08 76.5847L1630.28 73.8353L1635.77 80.2302L1632.58 82.9796L1627.08 76.5847Z" fill="#46274C" fill-opacity="0.78"/>
<path d="M1607.4 93.4475L1610.6 90.6981L1616.1 97.093L1612.9 99.8424L1607.4 93.4475Z" fill="#46274C" fill-opacity="0.78"/>
<path d="M1596.36 124.846L1596.15 120.634L1604.58 120.21L1604.79 124.421L1596.36 124.846Z" fill="#E95850" fill-opacity="0.72"/>
<path d="M1605.42 156.377L1603.18 152.801L1610.33 148.33L1612.57 151.906L1605.42 156.377Z" fill="#46274C" fill-opacity="0.78"/>
<path d="M1628.18 180.214L1624.27 178.655L1627.38 170.819L1631.3 172.377L1628.18 180.214Z" fill="#46274C" fill-opacity="0.78"/>
<path d="M1659.37 186.781L1655.16 186.742L1655.23 178.308L1659.45 178.348L1659.37 186.781Z" fill="#E95850" fill-opacity="0.72"/>
<path d="M1691.75 174.748L1688.38 177.285L1683.3 170.547L1686.67 168.011L1691.75 174.748Z" fill="#46274C" fill-opacity="0.78"/>
<path d="M1710.21 148.504L1709.77 152.697L1701.38 151.801L1701.83 147.608L1710.21 148.504Z" fill="#46274C" fill-opacity="0.78"/>
<path d="M1713.22 125.328L1712.77 129.521L1704.39 128.625L1704.84 124.432L1713.22 125.328Z" fill="#E95850" fill-opacity="0.72"/>
<path d="M1703.03 96.3196L1705.33 99.855L1698.26 104.452L1695.96 100.917L1703.03 96.3196Z" fill="#46274C" fill-opacity="0.78"/>
<path d="M1676.6 76.6431L1680.52 78.2134L1677.38 86.0408L1673.46 84.4705L1676.6 76.6431Z" fill="#46274C" fill-opacity="0.78"/>
<path d="M1655.89 126.539L1619.35 101.237C1632 107.562 1657.58 121.338 1658.7 125.836C1659.83 130.334 1658.24 151.138 1657.3 160.978L1655.89 126.539Z" fill="#6F5773"/>
<path d="M1305.92 104.642C1359.25 134.204 1413.56 226.337 1434.05 268.709C1506.39 417.749 1647.06 723.663 1631.06 754.998C1611.06 794.167 1434.05 806.731 1351.1 806.731C1284.74 806.731 1069.44 806.731 1029.66 745.39C907.459 556.935 1014.93 253.351 1074.92 175.012C1157.56 67.09 1239.26 67.6902 1305.92 104.642Z" fill="#F2CD87"/>
<path d="M1067.01 649.206C1036.57 636.346 1017.86 603.274 1021.55 587.33H1438.21L1468.26 684.973C1364.82 676.54 1120.92 671.983 1067.01 649.206Z" fill="#E4B061" fill-opacity="0.74"/>
<path d="M1097.88 305.697C1160.59 231.193 1239.27 179.679 1270.78 163.235C1336.43 575.96 1182.87 546.669 1097.88 480.432C1061.46 461.53 1019.51 398.828 1097.88 305.697Z" fill="#E4B061" fill-opacity="0.77"/>
<path d="M1155.44 263.95C1194.01 217.604 1247.76 177.861 1269.81 163.782C1289.37 169.389 1318.92 176.939 1327 169.762C1337.09 160.792 1380.45 193.683 1418.2 239.656C1436.81 262.328 1461.92 295.844 1474.63 308.054C1485.85 285.628 1489.78 367.975 1506.6 341.438L1557.99 290.046C1536.32 442.54 1514.63 447.092 1464.54 447.092C1424.47 447.092 1394.77 406.726 1384.93 386.543L1384.93 447.092L1224.21 447.092C1084.05 465.407 1073.21 405.979 1082.56 376.825C1091.9 347.672 1107.23 321.883 1155.44 263.95Z" fill="white"/>
<path d="M1316.35 186.125L1307.66 171.105L1295.06 186.125C1287.41 249.385 1280.87 364.742 1278.55 414.513H1298.1C1297.06 393.662 1309.83 253.567 1316.35 186.125Z" fill="#8697FB"/>
<path d="M1280.72 149.674C1305.41 146.992 1338.97 147.771 1344.82 149.674L1307.79 169.947L1280.72 149.674Z" fill="#46274C"/>
<path d="M938.536 719.721C938.536 716.408 941.222 713.721 944.536 713.721H1154.68C1157.99 713.721 1160.68 716.408 1160.68 719.721V773.398C1160.68 776.712 1157.99 779.398 1154.68 779.398H944.536C941.222 779.398 938.536 776.712 938.536 773.398V719.721Z" fill="#5E75FF"/>
<path d="M914.391 789.398C914.391 783.875 918.868 779.398 924.391 779.398H1192.21C1197.73 779.398 1202.21 783.875 1202.21 789.398V832.177C1202.21 837.7 1197.73 842.177 1192.21 842.177H924.391C918.868 842.177 914.391 837.7 914.391 832.177V789.398Z" fill="#90AEAD"/>
<path d="M993.59 713.721H1004.21V779.398H993.59V713.721Z" fill="#FBF1DC"/>
<path d="M1010.97 713.721H1021.6V779.398H1010.97V713.721Z" fill="#FBF1DC"/>
<path d="M949.16 796.781H1170.34V824.79H949.16V796.781Z" fill="white" fill-opacity="0.71"/>
<path fill-rule="evenodd" clip-rule="evenodd" d="M948.189 779.888C948.189 779.336 948.636 778.888 949.189 778.888H1126.9C1127.45 778.888 1127.9 779.336 1127.9 779.888C1127.9 780.44 1127.45 780.888 1126.9 780.888H949.189C948.636 780.888 948.189 780.44 948.189 779.888Z" fill="#46274C" fill-opacity="0.81"/>
<path d="M1341.32 804.086C1332.26 808.974 1325.8 820.222 1324.26 826.677C1336.86 826.677 1369.07 814.782 1376.82 807.774C1384.56 800.766 1380.04 767.049 1376.82 751.066C1352.38 773.657 1364.37 791.638 1341.32 804.086Z" fill="#E95850"/>
<path d="M1354.89 71.3796C1356.36 64.3598 1354.28 57.3401 1353.06 54.7077C1340.83 48.8579 1314.55 38.9132 1307.21 45.933C1299.88 52.9527 1302.94 74.012 1305.38 83.6641C1292.54 54.7077 1266.87 69.6246 1266.87 87.174C1266.87 101.214 1282.76 104.723 1290.71 104.723V163.514C1310.52 179.659 1327.69 170.241 1333.8 163.514L1335.64 137.19C1364.98 128.415 1362.23 101.214 1358.56 92.4388C1354.89 83.6641 1353.06 80.1543 1354.89 71.3796Z" fill="#EAA296"/>
<path d="M1359.81 96.1822C1360.52 101.404 1359.03 105.973 1356.48 106.389C1353.92 106.804 1351.26 102.908 1350.55 97.6867C1349.83 92.4654 1351.32 87.8959 1353.87 87.4804C1356.43 87.0649 1359.09 90.9608 1359.81 96.1822Z" fill="#E9746E" fill-opacity="0.78"/>
<path d="M1325.86 99.1814C1325.11 105.493 1320.98 109.984 1316.64 109.212C1312.3 108.441 1309.39 102.699 1310.14 96.3869C1310.89 90.0751 1315.01 85.5841 1319.35 86.3558C1323.7 87.1275 1326.61 92.8697 1325.86 99.1814Z" fill="#E9746E" fill-opacity="0.78"/>
<path d="M1304.46 131.048C1316.2 139.472 1330.75 138.653 1336.55 137.191L1334.6 155.2C1318.47 152.392 1307.83 137.483 1304.46 131.048Z" fill="#46274C"/>
<path d="M1283.38 67.8726C1296.58 65.7667 1303.35 79.8529 1305.49 86.2877C1305.19 77.5129 1306.3 57.8692 1309.97 56.4653C1314.55 54.7103 1342.06 56.4653 1353.06 54.7103C1364.06 52.9554 1371.4 49.4455 1372.31 39.7934C1373.05 32.0716 1369.56 26.6299 1363.15 25.7536C1338.64 22.4072 1298.05 23.9986 1290.71 29.2635C1284.85 33.4753 1283.38 41.548 1283.38 45.0579V67.8726Z" fill="#46274C"/>
<path fill-rule="evenodd" clip-rule="evenodd" d="M1276.02 78.9457C1275.83 79.4659 1276.1 80.038 1276.62 80.2236L1290.46 85.1599L1281.98 89.8122C1281.49 90.0779 1281.32 90.6858 1281.58 91.17C1281.85 91.6541 1282.46 91.8312 1282.94 91.5655L1295.32 84.772L1277.29 78.3399C1276.77 78.1543 1276.2 78.4255 1276.02 78.9457Z" fill="#46274C"/>
<path fill-rule="evenodd" clip-rule="evenodd" d="M1330.79 86.4104C1332.9 83.3081 1333.96 79.6178 1334.29 77.1487L1332.31 76.877C1332.01 79.12 1331.03 82.4977 1329.13 85.2855C1327.25 88.0528 1324.54 90.149 1320.7 90.149C1315.77 90.149 1312.93 87.7874 1311.26 84.9842C1309.56 82.1198 1309.1 78.7772 1309.1 77.0128H1307.1C1307.1 79.0181 1307.61 82.7436 1309.54 86.0049C1311.51 89.3274 1314.97 92.149 1320.7 92.149C1325.4 92.149 1328.66 89.5332 1330.79 86.4104Z" fill="white"/>
<path fill-rule="evenodd" clip-rule="evenodd" d="M1343.37 87.157C1345.75 90.2627 1349.09 92.8519 1353.17 91.9794C1357.01 91.1581 1359.87 88.4404 1361.85 85.5267C1363.85 82.606 1365.05 79.3659 1365.56 77.2461L1363.62 76.7796C1363.16 78.7009 1362.04 81.7091 1360.2 84.3994C1358.36 87.0968 1355.89 89.3528 1352.75 90.0236C1349.85 90.6433 1347.21 88.8805 1344.95 85.9399C1342.73 83.04 1341.13 79.2887 1340.34 76.7205L1338.43 77.3052C1339.26 80.0216 1340.95 84.0106 1343.37 87.157Z" fill="white"/>
<path fill-rule="evenodd" clip-rule="evenodd" d="M1365.59 77.0127C1365.59 76.4604 1365.14 76.0127 1364.59 76.0127H1302.02C1301.46 76.0127 1301.02 76.4604 1301.02 77.0127C1301.02 77.565 1301.46 78.0127 1302.02 78.0127H1364.59C1365.14 78.0127 1365.59 77.565 1365.59 77.0127Z" fill="white"/>
<path d="M1268.87 164.633L1281.97 148.727L1307.53 170.597L1345.08 149.025L1352.42 177.731C1291.88 171.268 1274.99 170.935 1268.87 164.633Z" fill="white"/>
<path fill-rule="evenodd" clip-rule="evenodd" d="M1279.55 416.73C1279.55 381.885 1287.67 260.393 1296.49 186.694L1294.51 186.437C1285.69 260.181 1277.55 381.76 1277.55 416.713L1279.55 416.73Z" fill="#46274C"/>
<path fill-rule="evenodd" clip-rule="evenodd" d="M1299.09 404.884L1316.68 184.627L1314.69 184.45L1297.11 404.706L1299.09 404.884Z" fill="#46274C"/>
<path fill-rule="evenodd" clip-rule="evenodd" d="M1351.32 178.502L1350.03 176.963L1325.12 198.154L1307.36 169.505L1287.26 195.148L1269.33 162.186L1267.58 163.141L1286.97 198.772L1307.18 172.988L1324.66 201.185L1351.32 178.502Z" fill="#46274C"/>
<path d="M1301.09 194.4C1300.24 196.552 1301.3 199.02 1303.47 199.913C1305.63 200.807 1308.09 199.787 1308.95 197.635C1309.8 195.483 1308.74 193.015 1306.57 192.122C1304.4 191.229 1301.95 192.249 1301.09 194.4Z" fill="white"/>
<path d="M1297.86 236.91C1297 239.062 1298.07 241.53 1300.23 242.423C1302.4 243.316 1304.86 242.296 1305.71 240.145C1306.57 237.993 1305.51 235.525 1303.34 234.632C1301.17 233.738 1298.72 234.759 1297.86 236.91Z" fill="white"/>
<path fill-rule="evenodd" clip-rule="evenodd" d="M1373.48 24.6608C1373.07 25.039 1373.05 25.6724 1373.42 26.0755C1374.88 27.644 1376.05 30.1926 1376.5 33.1434C1376.95 36.0813 1376.68 39.3282 1375.37 42.2656C1374.07 45.1868 1371.73 47.8393 1367.96 49.607C1364.19 51.3816 1358.92 52.2876 1351.75 51.5957C1351.2 51.5427 1350.71 51.9458 1350.66 52.496C1350.6 53.0462 1351 53.5352 1351.55 53.5882C1358.96 54.3039 1364.61 53.3876 1368.8 51.4187C1373.01 49.4427 1375.7 46.4302 1377.19 43.0734C1378.68 39.7327 1378.97 36.0885 1378.48 32.8306C1377.98 29.5857 1376.68 26.634 1374.89 24.7057C1374.51 24.3027 1373.88 24.2825 1373.48 24.6608Z" fill="#46274C"/>
<path fill-rule="evenodd" clip-rule="evenodd" d="M1472.5 310.598C1471.96 310.515 1471.45 310.891 1471.36 311.437C1470.35 318.143 1468.83 328.776 1467.56 338.884C1466.29 348.964 1465.27 358.603 1465.27 363.272C1465.27 363.824 1465.72 364.272 1466.27 364.272C1466.82 364.272 1467.27 363.824 1467.27 363.272C1467.27 358.753 1468.27 349.248 1469.54 339.133C1470.81 329.045 1472.33 318.43 1473.34 311.736C1473.43 311.19 1473.05 310.68 1472.5 310.598Z" fill="#46274C"/>
<path d="M1296.19 427.252C1295.79 428.935 1297.82 430.885 1300.74 431.608C1303.65 432.33 1306.34 431.552 1306.74 429.869C1307.15 428.186 1305.11 426.236 1302.2 425.513C1299.29 424.791 1296.6 425.569 1296.19 427.252Z" fill="white" fill-opacity="0.63"/>
<path d="M1720.37 755.941L1706.01 707.973L1608.79 748.215L1626.62 797.502L1720.37 755.941Z" fill="#EAA296"/>
<path d="M1719.5 755.615L1728.06 786.551C1738.55 852.236 1675.82 855.067 1643.14 848.272L1625.75 797.176L1719.5 755.615Z" fill="white"/>
<path d="M1684.77 840.435L1631.25 808.597C1592.17 854.735 1601.55 907.583 1611.13 928.24L1893.72 837.072C1890.58 827.022 1883.17 801.793 1870.05 791.254C1850.09 775.216 1752.26 798.059 1734.83 807.005C1720.9 814.162 1704.08 830.903 1684.77 840.435Z" fill="#E95850"/>
<path d="M1888.18 820.332L1607.82 908.453C1603.19 909.906 1608.11 922.263 1611.15 928.26L1893.05 836.797L1888.18 820.332Z" fill="#46274C"/>
<path fill-rule="evenodd" clip-rule="evenodd" d="M1755.49 801.356C1754.87 800.804 1753.92 800.856 1753.37 801.472L1718.77 839.957C1718.21 840.573 1718.27 841.52 1718.88 842.071C1719.5 842.623 1720.45 842.571 1721.01 841.955L1755.61 803.469C1756.16 802.854 1756.11 801.907 1755.49 801.356Z" fill="#46274C"/>
<path fill-rule="evenodd" clip-rule="evenodd" d="M1735.28 805.482C1734.76 804.836 1733.81 804.729 1733.16 805.244L1692.15 837.787C1691.5 838.302 1691.39 839.244 1691.91 839.891C1692.43 840.538 1693.37 840.644 1694.02 840.129L1735.04 807.586C1735.69 807.071 1735.79 806.129 1735.28 805.482Z" fill="#46274C"/>
<path fill-rule="evenodd" clip-rule="evenodd" d="M1888.47 820.838C1888.14 819.785 1887.01 819.198 1885.96 819.525L1605.94 906.35C1604.88 906.678 1604.29 907.796 1604.62 908.849C1604.95 909.902 1606.08 910.489 1607.13 910.162L1887.15 823.337C1888.21 823.009 1888.8 821.89 1888.47 820.838Z" fill="white"/>
<path d="M1442.57 520.916L1393.94 515.78L1417.1 595.525L1461.54 588.911L1442.57 520.916Z" fill="#E97E77"/>
<path d="M1442.96 522.891L1476.56 519.729C1535.18 518.81 1521.8 563.3 1509.83 582.825L1484.86 589.216L1462.5 589.216L1442.96 522.891Z" fill="white"/>
<path d="M1510.85 556.561L1475.77 588.12C1508.26 616.04 1553.21 613.397 1572.82 609.249L1547.03 427.764C1537.77 428.852 1514.63 431.283 1503.08 438.463C1485.52 449.387 1486.92 511.483 1491.38 522.953C1494.95 532.128 1506.24 543.879 1510.85 556.561Z" fill="#ECE9E8"/>
<path d="M1531.56 429.763L1555.13 609.617C1555.52 612.584 1567.1 610.6 1572.84 609.237L1546.67 428.155L1531.56 429.763Z" fill="#46274C"/>
<path fill-rule="evenodd" clip-rule="evenodd" d="M1490.03 509.465C1489.48 510.074 1489.52 511.023 1490.14 511.585L1516.86 536.11C1517.47 536.673 1518.42 536.635 1518.98 536.026C1519.54 535.417 1519.49 534.468 1518.88 533.905L1492.15 509.381C1491.54 508.818 1490.59 508.856 1490.03 509.465Z" fill="#46274C"/>
<path fill-rule="evenodd" clip-rule="evenodd" d="M1531.95 428.869C1530.85 428.997 1530.08 429.991 1530.22 431.089L1552.74 610.622C1552.87 611.72 1553.87 612.506 1554.97 612.377C1556.07 612.248 1556.84 611.254 1556.7 610.156L1534.18 430.623C1534.04 429.525 1533.04 428.74 1531.95 428.869Z" fill="white"/>
<path d="M1172.26 370.102L1229.45 308.805C1220.06 329.666 1205.66 370.862 1220.99 373.84H1224.96C1223.46 374.071 1222.15 374.063 1220.99 373.84H1197.47L1172.26 370.102Z" fill="#ECE9E8"/>
<path fill-rule="evenodd" clip-rule="evenodd" d="M1178.63 372.852C1173.01 372.079 1168.61 371.474 1163.67 371.474V369.474C1168.76 369.474 1173.34 370.104 1179.01 370.884C1180.96 371.153 1183.04 371.439 1185.32 371.724C1194.24 372.84 1206.33 373.959 1225.71 373.959V375.959C1206.24 375.959 1194.07 374.835 1185.07 373.708C1182.72 373.415 1180.6 373.123 1178.63 372.852Z" fill="#46274C"/>
<path d="M1076.89 491.663C1127.19 463.93 1221.09 447.959 1246.48 441.567C1429.12 491.661 1558.33 405.572 1596.8 441.565C1635.26 477.559 1678.17 579.027 1754.47 691.298L1581.26 772.734L1498.3 524.473H1406.59C1412.91 542.658 1425.42 634.682 1429.12 657.3C1285.23 647.417 1111.66 636.344 1101.01 635.164C1087.69 633.688 1024.99 624.483 1018.33 584.654C1011.68 544.825 1014.02 526.329 1076.89 491.663Z" fill="#9872EF"/>
<path d="M1417.37 275.077H1545.34C1548.32 275.077 1550.63 277.658 1550.31 280.615L1530 468.652H1372.86L1412.47 279.055C1412.96 276.738 1415 275.077 1417.37 275.077Z" fill="white"/>
<path fill-rule="evenodd" clip-rule="evenodd" d="M1551.31 280.722C1551.69 277.174 1548.91 274.077 1545.34 274.077H1417.37C1414.53 274.077 1412.07 276.07 1411.49 278.85L1371.63 469.652H1530.89L1551.31 280.722ZM1545.34 276.077C1547.72 276.077 1549.58 278.142 1549.32 280.507L1529.1 467.652H1374.09L1413.45 279.259C1413.84 277.406 1415.47 276.077 1417.37 276.077H1545.34Z" fill="#46274C"/>
<path d="M1288.71 449.904L1386.43 451.181L1384.04 469.99H1334.07L1283.64 465.395V454.904C1283.64 452.117 1285.92 449.868 1288.71 449.904Z" fill="#46274C"/>
<path d="M1426.89 273.842H1574.35C1577.52 273.842 1579.9 276.764 1579.24 279.871L1539.07 470.836L1382.53 468.582L1421.99 277.829C1422.47 275.507 1424.52 273.842 1426.89 273.842Z" fill="#46274C"/>
<path d="M1471.77 367.225C1469.97 379.349 1474.68 390.095 1482.3 391.227C1489.91 392.36 1497.55 383.45 1499.35 371.326C1501.16 359.202 1496.44 348.456 1488.82 347.323C1481.21 346.191 1473.57 355.101 1471.77 367.225Z" fill="white" fill-opacity="0.47"/>
<path fill-rule="evenodd" clip-rule="evenodd" d="M1240.93 524.161C1299.1 531.524 1374.13 527.229 1404.38 524.159L1404.58 526.148C1374.27 529.225 1299.07 533.536 1240.68 526.146L1240.93 524.161Z" fill="#46274C" fill-opacity="0.73"/>
<path d="M1551.01 430.379L1527.36 415.008C1523.42 408.889 1531.08 397.334 1535.31 395.508L1538.57 392.594C1542.93 384.992 1546.62 377.383 1545.58 370.191C1544.65 363.791 1535.43 338.699 1541.29 335.487C1545.98 332.917 1553.59 344.307 1555.66 347.535C1554.19 336.757 1555.45 324.725 1561.84 326.334C1566.96 327.62 1567.34 333.802 1567.61 339.093C1575.88 317.265 1582.18 309.882 1583.18 319.32C1586.42 349.859 1593.43 371.939 1551.01 430.379Z" fill="#EAA296"/>
<path fill-rule="evenodd" clip-rule="evenodd" d="M1568.86 340.985C1568.32 341.062 1567.94 341.568 1568.01 342.115C1568.67 346.717 1569.99 356.932 1570.11 361.284C1570.12 361.836 1570.58 362.272 1571.13 362.257C1571.68 362.242 1572.12 361.783 1572.1 361.231C1571.98 356.741 1570.64 346.404 1569.99 341.834C1569.92 341.287 1569.41 340.907 1568.86 340.985Z" fill="#46274C"/>
<path fill-rule="evenodd" clip-rule="evenodd" d="M1554.06 345.039C1553.54 345.247 1553.3 345.83 1553.51 346.342C1554.91 349.801 1556.95 355.316 1558.5 360.604C1559.27 363.249 1559.91 365.818 1560.29 368.034C1560.68 370.286 1560.77 372.05 1560.53 373.15C1559.98 375.702 1559.38 377.42 1558.88 378.519C1558.63 379.069 1558.41 379.452 1558.24 379.702C1558.08 379.932 1557.99 380.005 1557.99 380.006C1557.99 380.006 1558 380.004 1558 380C1557.54 380.293 1557.4 380.911 1557.69 381.378C1557.98 381.846 1558.6 381.987 1559.07 381.694C1559.37 381.504 1559.64 381.187 1559.88 380.841C1560.14 380.47 1560.42 379.978 1560.7 379.348C1561.28 378.087 1561.91 376.226 1562.49 373.574C1562.81 372.072 1562.66 369.981 1562.26 367.696C1561.87 365.376 1561.2 362.726 1560.42 360.043C1558.85 354.675 1556.78 349.094 1555.36 345.589C1555.15 345.077 1554.57 344.831 1554.06 345.039Z" fill="#46274C"/>
<path d="M1563.28 327.394C1564.72 327.369 1566.36 330 1566.94 333.27C1567.51 336.541 1566.81 339.213 1565.37 339.238C1563.93 339.264 1562.3 336.633 1561.72 333.362C1561.14 330.091 1561.84 327.419 1563.28 327.394Z" fill="white" fill-opacity="0.63"/>
<path d="M1581.28 316.653C1582.65 317.089 1583.45 319.497 1583.07 322.03C1582.68 324.563 1581.25 326.263 1579.88 325.826C1578.51 325.389 1577.71 322.981 1578.09 320.448C1578.48 317.915 1579.9 316.216 1581.28 316.653Z" fill="white" fill-opacity="0.63"/>
<path d="M1543.14 337.464C1544.38 336.57 1547.04 337.634 1549.06 339.839C1551.09 342.044 1551.72 344.556 1550.47 345.45C1549.22 346.343 1546.57 345.28 1544.54 343.074C1542.52 340.869 1541.89 338.357 1543.14 337.464Z" fill="white" fill-opacity="0.63"/>
<path d="M1540.21 646.626C1489.92 633.975 1466.81 603.404 1461.54 589.7H1478.93C1495.06 602.666 1518.86 609.07 1528.74 610.652L1540.21 646.626Z" fill="#E4B061"/>
<path d="M1229.68 405L1231.63 432.444C1235.36 438.681 1250.54 437.557 1254.56 434.795L1259.11 433.373C1268.72 433.22 1277.99 433.631 1284.3 437.9C1289.92 441.698 1308.94 461.363 1315.17 457.855C1320.16 455.049 1313.37 443.195 1311.4 439.91C1320.91 446.233 1333.09 450.798 1335 444.578C1336.52 439.602 1330.82 436.374 1325.91 433.657C1351.23 436.831 1361.69 434.908 1353.2 429.623C1325.75 412.521 1308.42 396.157 1229.68 405Z" fill="#EAA296"/>
<path fill-rule="evenodd" clip-rule="evenodd" d="M1324.73 431.665C1324.41 432.125 1323.79 432.249 1323.34 431.944C1319.29 429.226 1310.23 423.296 1306.12 421.15C1305.64 420.896 1305.46 420.293 1305.72 419.803C1305.98 419.313 1306.59 419.122 1307.07 419.376C1311.29 421.582 1320.45 427.578 1324.47 430.279C1324.92 430.585 1325.04 431.206 1324.73 431.665Z" fill="#46274C"/>
<path fill-rule="evenodd" clip-rule="evenodd" d="M1312.89 442.438C1312.48 442.811 1311.85 442.784 1311.48 442.377C1308.93 439.551 1304.76 435.216 1300.53 431.411C1298.42 429.508 1296.31 427.75 1294.39 426.382C1292.45 424.996 1290.8 424.075 1289.58 423.754C1286.83 423.028 1284.86 422.726 1283.52 422.637C1282.85 422.593 1282.35 422.602 1282 422.634C1281.7 422.662 1281.56 422.704 1281.53 422.713C1281.52 422.715 1281.52 422.715 1281.52 422.713C1281.02 422.959 1280.43 422.757 1280.19 422.262C1279.95 421.768 1280.16 421.168 1280.66 420.922C1280.98 420.766 1281.4 420.685 1281.85 420.643C1282.33 420.599 1282.93 420.593 1283.68 420.643C1285.18 420.742 1287.28 421.071 1290.12 421.821C1291.7 422.238 1293.6 423.339 1295.57 424.749C1297.57 426.177 1299.74 427.988 1301.89 429.917C1306.17 433.778 1310.39 438.162 1312.98 441.026C1313.34 441.433 1313.31 442.065 1312.89 442.438Z" fill="#46274C"/>
<path d="M1334.76 442.849C1335.56 441.629 1333.92 438.995 1331.11 436.965C1328.29 434.936 1325.36 434.281 1324.56 435.501C1323.76 436.721 1325.39 439.355 1328.21 441.384C1331.02 443.413 1333.96 444.069 1334.76 442.849Z" fill="white" fill-opacity="0.63"/>
<path d="M1354.72 432.506C1355.04 431.126 1353.17 429.311 1350.54 428.451C1347.91 427.591 1345.52 428.013 1345.2 429.392C1344.88 430.771 1346.75 432.587 1349.38 433.447C1352.01 434.306 1354.4 433.885 1354.72 432.506Z" fill="white" fill-opacity="0.63"/>
<path fill-rule="evenodd" clip-rule="evenodd" d="M1258.14 549.125C1253.54 551.335 1248.85 553.586 1244.08 556.032L1243.16 554.252C1248.04 551.753 1252.79 549.476 1257.41 547.254C1267.68 542.324 1277.39 537.662 1286.83 531.43L1287.93 533.1C1278.37 539.408 1268.47 544.164 1258.14 549.125Z" fill="#46274C" fill-opacity="0.73"/>
<path d="M1314.27 455.352C1315.8 454.705 1316.21 451.937 1315.19 449.171C1314.18 446.404 1312.11 444.686 1310.59 445.334C1309.06 445.981 1308.65 448.749 1309.67 451.515C1310.68 454.282 1312.75 456 1314.27 455.352Z" fill="white" fill-opacity="0.63"/>
<path d="M1238.35 446.348C1262.17 450.193 1261.55 430.276 1289.8 442.594C1283.53 434.224 1267.58 429.264 1256.87 432.319C1248.3 434.762 1239.38 434.247 1238.35 434.014L1238.35 446.348Z" fill="#E97E77"/>
<path d="M1242.9 445.974L1248.57 377.583L1229.14 375.714L1223.84 445.974L1242.9 445.974Z" fill="#8697FB"/>
<path d="M1610.1 455.075C1692.63 624.278 1710.61 697.583 1710.61 710.954L1759.94 691.129C1725.64 654.614 1656.21 519.621 1610.1 455.075Z" fill="#B88CF6"/>
<path d="M1373.44 808.952L1376.21 750.729C1429.01 758.061 1462.07 801.85 1473.59 823.395L1277.35 947.464C1271.07 938.003 1255.08 914.58 1252.88 898.034C1249.54 872.856 1310.81 823.535 1325.46 818.314C1337.17 814.138 1357.51 815.02 1373.44 808.952Z" fill="#DD3728"/>
<path d="M1267.02 931.504L1459.93 806.716C1463.11 804.658 1470.37 817 1473.6 823.429L1277.44 946.813L1267.02 931.504Z" fill="#46274C"/>
<path fill-rule="evenodd" clip-rule="evenodd" d="M1311.69 828.111C1311.78 827.29 1312.52 826.696 1313.35 826.783L1358.29 831.544C1359.11 831.632 1359.71 832.368 1359.63 833.189C1359.54 834.009 1358.79 834.604 1357.97 834.516L1313.03 829.755C1312.2 829.668 1311.61 828.931 1311.69 828.111Z" fill="#46274C"/>
<path fill-rule="evenodd" clip-rule="evenodd" d="M1323.83 817.527C1323.76 816.705 1324.37 815.978 1325.2 815.903L1368.46 812C1369.28 811.925 1370.02 812.531 1370.09 813.353C1370.17 814.175 1369.56 814.902 1368.73 814.976L1325.47 818.88C1324.64 818.955 1323.91 818.349 1323.83 817.527Z" fill="#46274C"/>
<path d="M1539.1 422.804C1524.25 412.006 1535.72 398.83 1539.1 392.836C1533.11 395.602 1527.76 400.674 1525.73 410.817C1522.97 424.648 1537.26 436.635 1546.94 434.33C1554.69 432.486 1562.15 415.581 1565.38 408.512C1561.23 414.505 1549.25 430.181 1539.1 422.804Z" fill="#E97E77"/>
<path fill-rule="evenodd" clip-rule="evenodd" d="M1266.91 932.301C1266.3 931.382 1266.56 930.147 1267.48 929.541L1459.25 804.039C1460.18 803.433 1461.42 803.687 1462.03 804.606C1462.64 805.524 1462.39 806.76 1461.46 807.366L1269.69 932.868C1268.77 933.474 1267.52 933.22 1266.91 932.301Z" fill="white"/>
</svg>
